<svg width="128" height="86" viewBox="0 0 128 86" fill="none" xmlns="http://www.w3.org/2000/svg">
<path d="M127.198 85.7953C127.69 70.6962 125.317 56.703 120.027 43.74C114.737 30.7771 107.38 20.4979 97.8453 12.8252C88.3107 5.15251 77.8103 1.08307 66.2828 0.763325C54.7553 0.443584 44.0114 3.84969 33.9922 11.0541C23.9729 18.2585 15.9601 28.1114 9.89471 40.6853C3.82932 53.2592 0.491808 67.1681 0 82.2672C3.2566 72.5787 7.37875 64.0995 12.477 56.9068C17.5753 49.7141 23.021 44.0126 28.9786 39.9552C34.9363 35.8978 40.9143 32.9521 46.9716 31.0458C53.0288 29.1396 59.1629 28.3466 65.3787 28.519C68.9952 28.6194 72.4938 28.8646 75.7592 29.3255C79.0246 29.7865 82.5039 30.6239 86.2561 31.7651C90.0084 32.9063 93.4095 34.4082 96.6315 36.2015C99.8534 37.9947 103 40.3785 106.242 43.2836C109.484 46.1886 112.314 49.6008 114.845 53.5233C117.375 57.4458 119.768 62.1052 121.909 67.5726C124.05 73.04 125.774 79.1625 127.198 85.7953Z" fill="black"/>
</svg>
